<svg width="28" height="26" viewBox="0 0 28 26" fill="none" xmlns="http://www.w3.org/2000/svg">
<path d="M9.31641 24.8326C9.31641 25.0004 9.40957 25.1542 9.55771 25.2326C9.70575 25.311 9.88574 25.3009 10.0241 25.2062L13.1403 23.0784L9.31646 21.2559V24.8326H9.31641Z" fill="white"/>
<path d="M27.8545 0.835045C27.7689 0.756136 27.6584 0.714844 27.5468 0.714844C27.4794 0.714844 27.4123 0.729777 27.3488 0.761001L0.447107 13.957C0.172143 14.0921 -0.00185178 14.3729 1.48712e-05 14.6801C0.00188153 14.9868 0.178818 15.2657 0.455762 15.3978L7.54577 18.7761L21.7222 7.12426L9.30241 19.6131L18.1348 23.8215C18.2433 23.8735 18.3617 23.8994 18.4789 23.8994C18.5789 23.8994 18.678 23.8812 18.7723 23.8441C18.978 23.7628 19.1415 23.5999 19.2231 23.3941L27.9679 1.33361C28.0371 1.16001 27.992 0.961525 27.8545 0.835045Z" fill="white"/>
</svg>
