<?xml version="1.0" standalone="no"?>
<!DOCTYPE svg PUBLIC "-//W3C//DTD SVG 20010904//EN"
 "http://www.w3.org/TR/2001/REC-SVG-20010904/DTD/svg10.dtd">
<svg version="1.0" xmlns="http://www.w3.org/2000/svg"
 width="512.000000pt" height="512.000000pt" viewBox="0 0 512.000000 512.000000"
 preserveAspectRatio="xMidYMid meet">

<g transform="translate(0.000000,512.000000) scale(0.100000,-0.100000)"
fill="#000000" stroke="none">
<path d="M600 3230 c0 -5 -6 -10 -12 -10 -21 0 -58 -64 -58 -100 0 -19 11 -57
24 -85 40 -82 60 -130 58 -137 -1 -5 2 -8 8 -8 5 0 19 -18 30 -40 11 -22 18
-40 15 -40 -3 0 3 -17 14 -37 10 -21 18 -40 17 -43 0 -3 9 -16 22 -30 12 -13
22 -29 22 -35 0 -6 22 -55 50 -108 27 -53 48 -97 45 -97 -3 0 7 -19 20 -42 14
-24 33 -58 42 -76 31 -60 122 -64 173 -6 40 46 39 88 -1 159 -17 30 -28 55
-25 55 4 0 -4 19 -16 43 -12 23 -21 45 -20 50 1 4 -2 7 -7 7 -4 0 -20 28 -35
63 -15 34 -31 69 -36 77 -23 36 -60 110 -55 110 2 0 -7 19 -21 43 -13 23 -32
58 -40 77 -9 19 -25 54 -35 77 -11 23 -20 45 -20 48 1 3 -7 14 -16 24 -10 10
-29 31 -42 45 -17 20 -33 26 -62 26 -21 0 -39 -4 -39 -10z"/>
<path d="M1028 3233 c-1 -5 -16 -19 -33 -33 -51 -42 -43 -111 31 -252 13 -27
21 -48 17 -48 -5 0 0 -5 10 -11 9 -5 17 -16 17 -24 0 -15 31 -87 41 -95 13
-11 38 -68 32 -74 -4 -3 -1 -6 5 -6 7 0 12 -6 12 -14 0 -8 18 -44 40 -82 22
-37 38 -70 35 -72 -2 -2 9 -28 25 -57 16 -29 26 -56 23 -59 -4 -3 -1 -6 6 -6
7 0 9 -4 6 -10 -3 -5 -2 -10 3 -10 6 0 15 -13 20 -29 13 -36 44 -54 95 -54 75
0 111 39 108 117 -1 33 -10 65 -27 93 -14 24 -22 43 -19 43 4 0 -1 7 -9 16 -9
8 -14 20 -11 25 4 5 1 9 -4 9 -6 0 -11 7 -11 16 0 8 -18 46 -40 83 -22 37 -40
73 -40 80 0 7 -12 32 -26 57 -14 24 -22 44 -17 44 4 0 3 4 -3 8 -11 7 -143
270 -143 285 0 10 -19 28 -53 50 -28 17 -84 23 -90 10z"/>
<path d="M1590 3231 c0 -5 -13 -11 -29 -14 -86 -18 -148 -156 -106 -237 9 -17
13 -30 10 -30 -7 0 5 -15 58 -71 20 -22 37 -44 38 -47 0 -4 3 -16 5 -27 3 -11
7 -37 11 -58 3 -21 10 -40 14 -43 5 -3 9 -17 9 -32 0 -15 3 -37 6 -49 6 -21 8
-20 31 14 25 37 44 76 49 102 1 8 6 17 11 20 4 3 9 12 11 19 1 7 13 30 26 50
12 20 26 49 30 65 3 15 11 27 17 27 6 0 7 5 4 10 -3 6 -1 10 5 10 6 0 8 4 5
10 -3 5 -1 19 5 31 11 20 16 87 8 119 -2 8 -11 23 -20 34 -10 11 -18 25 -18
30 -1 13 -66 56 -85 56 -8 0 -17 5 -20 10 -8 12 -75 13 -75 1z m90 -126 c32
-22 37 -31 36 -64 -1 -30 -8 -44 -31 -63 -35 -28 -65 -42 -65 -28 0 5 -6 7
-13 5 -7 -3 -27 8 -45 24 -48 45 -42 104 16 135 39 22 61 19 102 -9z"/>
<path d="M2367 3083 c-4 -3 -7 -183 -7 -400 l0 -393 70 0 70 0 0 400 0 400
-63 0 c-35 0 -67 -3 -70 -7z"/>
<path d="M2570 2802 c0 -346 4 -369 84 -448 110 -111 267 -112 381 -1 43 42
57 64 70 111 41 140 -31 285 -163 330 -55 19 -144 20 -194 2 l-38 -14 0 154 0
154 -70 0 -70 0 0 -288z m340 -149 c59 -41 79 -90 60 -148 -18 -55 -62 -85
-124 -85 -59 0 -96 21 -121 70 -19 37 -19 64 2 107 31 66 127 95 183 56z"/>
<path d="M4394 2963 c-53 -131 -60 -140 -100 -147 -148 -27 -246 -156 -231
-301 7 -67 28 -113 75 -160 49 -50 109 -75 197 -84 50 -5 80 -13 94 -26 58
-51 41 -174 -29 -210 -96 -50 -208 25 -198 133 3 34 1 35 -55 60 -75 32 -82
25 -82 -76 0 -61 5 -86 23 -122 55 -106 129 -150 249 -150 68 0 85 4 129 30
151 86 187 268 81 411 l-19 27 30 41 c84 115 54 291 -63 373 l-43 30 28 62
c46 103 46 103 7 119 -75 32 -76 32 -93 -10z m-17 -293 c24 0 73 -52 83 -88
24 -87 -35 -162 -127 -162 -124 0 -177 140 -85 223 24 22 70 37 97 32 11 -3
25 -5 32 -5z"/>
<path d="M1905 2786 c-104 -49 -155 -130 -155 -245 0 -210 223 -336 407 -231
87 50 132 127 133 229 0 76 -17 125 -64 178 -80 92 -213 120 -321 69z m176
-131 c61 -32 87 -117 53 -175 -47 -79 -187 -81 -228 -2 -31 61 -24 107 24 154
34 31 48 38 81 38 22 0 53 -7 70 -15z"/>
<path d="M3162 2638 c3 -193 9 -216 76 -283 72 -73 176 -100 277 -71 45 14 69
29 110 70 73 73 85 116 85 308 l0 148 -70 0 -70 0 0 -140 c0 -161 -10 -198
-62 -230 -45 -28 -117 -27 -153 2 -46 36 -55 73 -55 228 l0 140 -71 0 -71 0 4
-172z"/>
<path d="M3940 2789 c-60 -27 -107 -74 -136 -134 -22 -46 -24 -63 -24 -207 l0
-158 65 0 65 0 0 118 c0 64 5 135 10 157 11 48 68 105 105 105 24 0 25 2 25
70 l0 70 -32 0 c-18 0 -53 -10 -78 -21z"/>
</g>
</svg>
